<svg xmlns="http://www.w3.org/2000/svg" width="900" height="220" viewBox="0 0 900 220">
  <rect width="900" height="220" fill="#0a0c0f" />
  <polyline fill="none" stroke="#c8923a" stroke-width="1.5" points="32.0,97.7 35.4,83.3 38.7,64.6 42.1,65.3 45.4,81.4 48.8,88.0 52.1,83.1 55.5,76.4 58.9,90.7 62.2,107.8 65.6,103.1 68.9,93.7 72.3,92.5 75.6,95.4 79.0,102.1 82.4,89.5 85.7,99.4 89.1,107.5 92.4,124.3 95.8,135.9 99.1,122.6 102.5,123.8 105.9,116.4 109.2,109.8 112.6,107.5 115.9,112.0 119.3,121.8 122.7,122.8 126.0,122.8 129.4,119.4 132.7,116.9 136.1,111.2 139.4,110.0 142.8,134.7 146.2,140.4 149.5,142.8 152.9,152.7 156.2,154.2 159.6,140.9 162.9,131.2 166.3,139.4 169.7,127.8 173.0,113.7 176.4,121.6 179.7,126.3 183.1,131.0 186.4,140.6 189.8,142.1 193.2,149.0 196.5,146.0 199.9,137.4 203.2,128.0 206.6,125.8 209.9,120.1 213.3,126.8 216.7,111.0 220.0,111.2 223.4,117.2 226.7,119.4 230.1,116.2 233.4,113.5 236.8,87.3 240.2,93.5 243.5,87.3 246.9,83.8 250.2,89.3 253.6,94.0 256.9,95.9 260.3,88.8 263.7,82.4 267.0,81.4 270.4,84.8 273.7,87.3 277.1,85.1 280.4,92.2 283.8,91.7 287.2,97.4 290.5,103.8 293.9,103.6 297.2,112.2 300.6,117.4 304.0,108.0 307.3,114.4 310.7,112.2 314.0,124.6 317.4,126.0 320.7,91.5 324.1,99.9 327.5,91.7 330.8,83.6 334.2,55.2 337.5,32.0 340.9,41.6 344.2,41.1 347.6,55.4 351.0,74.7 354.3,71.7 357.7,75.7 361.0,75.9 364.4,73.5 367.7,52.2 371.1,52.2 374.5,55.7 377.8,59.2 381.2,59.2 384.5,68.8 387.9,74.0 391.2,85.8 394.6,81.1 398.0,75.4 401.3,79.1 404.7,75.4 408.0,78.4 411.4,71.0 414.7,103.6 418.1,124.8 421.5,116.4 424.8,129.5 428.2,124.3 431.5,127.8 434.9,113.9 438.2,134.2 441.6,145.1 445.0,164.3 448.3,153.7 451.7,144.3 455.0,147.3 458.4,146.8 461.8,139.9 465.1,129.0 468.5,131.2 471.8,133.2 475.2,140.1 478.5,145.5 481.9,161.8 485.3,146.0 488.6,122.3 492.0,139.1 495.3,144.8 498.7,139.4 502.0,133.0 505.4,104.6 508.8,99.6 512.1,95.4 515.5,98.6 518.8,78.7 522.2,76.7 525.5,80.6 528.9,76.2 532.3,80.1 535.6,88.3 539.0,97.7 542.3,100.1 545.7,96.7 549.0,93.5 552.4,97.4 555.8,102.3 559.1,94.0 562.5,87.5 565.8,101.6 569.2,99.4 572.5,88.0 575.9,85.3 579.3,83.1 582.6,81.4 586.0,93.0 589.3,98.4 592.7,106.5 596.0,119.1 599.4,113.7 602.8,125.3 606.1,120.9 609.5,128.5 612.8,125.1 616.2,120.9 619.6,118.1 622.9,113.7 626.3,106.3 629.6,119.9 633.0,115.4 636.3,124.6 639.7,118.6 643.1,142.3 646.4,139.4 649.8,136.7 653.1,138.1 656.5,146.8 659.8,132.5 663.2,126.0 666.6,122.1 669.9,127.5 673.3,157.9 676.6,167.3 680.0,179.4 683.3,188.0 686.7,178.9 690.1,174.4 693.4,169.0 696.8,171.0 700.1,179.1 703.5,163.3 706.8,168.7 710.2,169.5 713.6,176.2 716.9,165.5 720.3,165.8 723.6,174.7 727.0,168.3 730.3,166.3 733.7,163.6 737.1,165.3 740.4,172.4 743.8,173.2 747.1,171.7 750.5,181.8 753.8,178.9 757.2,181.1 760.6,174.9 763.9,179.1 767.3,145.1 770.6,145.8 774.0,148.3 777.3,143.8 780.7,138.9 784.1,145.3 787.4,135.9 790.8,137.6 794.1,139.9 797.5,140.6 800.9,142.8 804.2,130.5 807.6,128.0 810.9,130.7 814.3,110.0 817.6,106.3 821.0,105.1 824.4,109.8 827.7,107.8 831.1,113.2 834.4,112.5 837.8,126.3 841.1,121.6 844.5,127.5 847.9,127.8 851.2,120.1 854.6,121.4 857.9,119.1 861.3,119.1 864.6,118.6 868.0,124.8" />
  <polyline fill="none" stroke="#3dbc72" stroke-width="1.5" points="32.0,103.9 35.4,101.9 38.7,98.4 42.1,95.2 45.4,93.9 48.8,93.4 52.1,92.4 55.5,90.9 58.9,90.8 62.2,92.5 65.6,93.5 68.9,93.5 72.3,93.4 75.6,93.6 79.0,94.4 82.4,93.9 85.7,94.5 89.1,95.7 92.4,98.4 95.8,102.0 99.1,104.0 102.5,105.8 105.9,106.9 109.2,107.1 112.6,107.2 115.9,107.6 119.3,109.0 122.7,110.3 126.0,111.5 129.4,112.2 132.7,112.7 136.1,112.6 139.4,112.3 142.8,114.4 146.2,116.9 149.5,119.4 152.9,122.6 156.2,125.6 159.6,127.0 162.9,127.4 166.3,128.6 169.7,128.5 173.0,127.1 176.4,126.6 179.7,126.5 183.1,127.0 186.4,128.3 189.8,129.6 193.2,131.4 196.5,132.8 199.9,133.3 203.2,132.8 206.6,132.1 209.9,130.9 213.3,130.6 216.7,128.7 220.0,127.0 223.4,126.1 226.7,125.4 230.1,124.6 233.4,123.5 236.8,120.1 240.2,117.5 243.5,114.6 246.9,111.7 250.2,109.6 253.6,108.1 256.9,106.9 260.3,105.2 263.7,103.0 267.0,101.0 270.4,99.4 273.7,98.3 277.1,97.0 280.4,96.6 283.8,96.1 287.2,96.2 290.5,96.9 293.9,97.6 297.2,99.0 300.6,100.7 304.0,101.4 307.3,102.7 310.7,103.6 314.0,105.6 317.4,107.5 320.7,106.0 324.1,105.4 327.5,104.1 330.8,102.2 334.2,97.7 337.5,91.4 340.9,86.7 344.2,82.3 347.6,79.8 351.0,79.3 354.3,78.6 357.7,78.3 361.0,78.1 364.4,77.6 367.7,75.2 371.1,73.0 374.5,71.4 377.8,70.2 381.2,69.2 384.5,69.1 387.9,69.6 391.2,71.1 394.6,72.1 398.0,72.4 401.3,73.0 404.7,73.3 408.0,73.8 411.4,73.5 414.7,76.4 418.1,81.0 421.5,84.4 424.8,88.7 428.2,92.0 431.5,95.5 434.9,97.2 438.2,100.7 441.6,105.0 445.0,110.6 448.3,114.7 451.7,117.5 455.0,120.4 458.4,122.9 461.8,124.5 465.1,124.9 468.5,125.5 471.8,126.3 475.2,127.6 478.5,129.3 481.9,132.4 485.3,133.7 488.6,132.6 492.0,133.2 495.3,134.3 498.7,134.8 502.0,134.6 505.4,131.8 508.8,128.7 512.1,125.5 515.5,123.0 518.8,118.8 522.2,114.8 525.5,111.5 528.9,108.1 532.3,105.5 535.6,103.8 539.0,103.2 542.3,102.9 545.7,102.3 549.0,101.5 552.4,101.1 555.8,101.2 559.1,100.5 562.5,99.3 565.8,99.5 569.2,99.5 572.5,98.4 575.9,97.2 579.3,95.8 582.6,94.4 586.0,94.3 589.3,94.7 592.7,95.8 596.0,98.0 599.4,99.5 602.8,102.0 606.1,103.8 609.5,106.1 612.8,107.9 616.2,109.2 619.6,110.0 622.9,110.4 626.3,110.0 629.6,110.9 633.0,111.4 636.3,112.6 639.7,113.2 643.1,116.0 646.4,118.2 649.8,120.0 653.1,121.7 656.5,124.1 659.8,124.9 663.2,125.0 666.6,124.7 669.9,125.0 673.3,128.1 676.6,131.8 680.0,136.4 683.3,141.3 686.7,144.9 690.1,147.7 693.4,149.7 696.8,151.7 700.1,154.3 703.5,155.2 706.8,156.5 710.2,157.7 713.6,159.5 716.9,160.1 720.3,160.6 723.6,161.9 727.0,162.5 730.3,162.9 733.7,163.0 737.1,163.2 740.4,164.1 743.8,164.9 747.1,165.6 750.5,167.1 753.8,168.2 757.2,169.5 760.6,170.0 763.9,170.9 767.3,168.4 770.6,166.2 774.0,164.5 777.3,162.6 780.7,160.3 784.1,158.9 787.4,156.7 790.8,154.9 794.1,153.4 797.5,152.2 800.9,151.3 804.2,149.3 807.6,147.3 810.9,145.7 814.3,142.3 817.6,138.9 821.0,135.7 824.4,133.2 827.7,130.8 831.1,129.1 834.4,127.5 837.8,127.4 841.1,126.9 844.5,126.9 847.9,127.0 851.2,126.3 854.6,125.9 857.9,125.2 861.3,124.6 864.6,124.1 868.0,124.1" />
  <text x="32" y="22" fill="#8a9aaa" font-size="11" font-family="monospace">max 1.20</text>
  <text x="32" y="204" fill="#8a9aaa" font-size="11" font-family="monospace">min 1.13</text>
  <text x="32" y="214" fill="#c8923a" font-size="11" font-family="monospace">close</text>
  <text x="152" y="214" fill="#3dbc72" font-size="11" font-family="monospace">EMA(20)</text>
</svg>
